HIERARCHY
ROOT Hips
{
	OFFSET	0.00	0.00	0.00
	CHANNELS 6 Xposition Yposition Zposition Zrotation Xrotation Yrotation
	JOINT LeftUpLeg
	{
		OFFSET	 0.126116	-0.065224	 0.014019
		CHANNELS 3 Zrotation Xrotation Yrotation
		JOINT LeftLeg
		{
			OFFSET	 0.000000	 0.569914	 0.000000
			CHANNELS 3 Zrotation Xrotation Yrotation
			JOINT LeftFoot
			{
				OFFSET	 0.000000	 0.544423	 0.000000
				CHANNELS 3 Zrotation Xrotation Yrotation
				JOINT LeftToeBase
				{
					OFFSET	 0.000000	 0.207117	 0.000000
					CHANNELS 3 Zrotation Xrotation Yrotation
					End Site
					{
						OFFSET	 0.000000	 0.207117	 0.000000
					}
				}
			}
		}
	}
	JOINT RightUpLeg
	{
		OFFSET	-0.124023	-0.065224	 0.008373
		CHANNELS 3 Zrotation Xrotation Yrotation
		JOINT RightLeg
		{
			OFFSET	 0.000000	 0.570047	 0.000000
			CHANNELS 3 Zrotation Xrotation Yrotation
			JOINT RightFoot
			{
				OFFSET	 0.000000	 0.544354	 0.000000
				CHANNELS 3 Zrotation Xrotation Yrotation
				JOINT RightToeBase
				{
					OFFSET	 0.000000	 0.207540	 0.000000
					CHANNELS 3 Zrotation Xrotation Yrotation
					End Site
					{
						OFFSET	 0.000000	 0.207540	 0.000000
					}
				}
			}
		}
	}
	JOINT Spine
	{
		OFFSET	 0.000184	 0.117403	 0.007763
		CHANNELS 3 Zrotation Xrotation Yrotation
		JOINT Spine1
		{
			OFFSET	 0.000000	 0.137269	 0.000000
			CHANNELS 3 Zrotation Xrotation Yrotation
			JOINT Spine2
			{
				OFFSET	 0.000000	 0.156879	 0.000000
				CHANNELS 3 Zrotation Xrotation Yrotation
				JOINT LeftShoulder
				{
					OFFSET	 0.080501	 0.160143	 0.002496
					CHANNELS 3 Zrotation Xrotation Yrotation
					JOINT LeftArm
					{
						OFFSET	 0.000000	 0.164363	 0.000000
						CHANNELS 3 Zrotation Xrotation Yrotation
						JOINT LeftForeArm
						{
							OFFSET	 0.000000	 0.364576	 0.000000
							CHANNELS 3 Zrotation Xrotation Yrotation
							JOINT LeftHand
							{
								OFFSET	 0.000000	 0.360812	 0.000000
								CHANNELS 3 Zrotation Xrotation Yrotation
								JOINT LeftHandIndex1
								{
									OFFSET	 0.000000	 0.086006	 0.000000
									CHANNELS 3 Zrotation Xrotation Yrotation
									JOINT LeftHandIndex2
									{
										OFFSET	 0.000000	 0.047237	 0.000000
										CHANNELS 3 Zrotation Xrotation Yrotation
										JOINT LeftHandIndex3
										{
											OFFSET	-0.004284	 0.038165	 0.000551
											CHANNELS 3 Zrotation Xrotation Yrotation
											End Site
											{
												OFFSET	-0.004284	 0.038165	 0.000551
											}
										}
									}
								}
							}
						}
					}
				}
				JOINT Neck
				{
					OFFSET	 0.000000	 0.176489	 0.000000
					CHANNELS 3 Zrotation Xrotation Yrotation
					JOINT Head
					{
						OFFSET	 0.000000	 0.077941	 0.001747
						CHANNELS 3 Zrotation Xrotation Yrotation
						End Site
						{
							OFFSET	 0.000000	 0.077941	 0.001747
						}
					}
				}
				JOINT RightShoulder
				{
					OFFSET	-0.080363	 0.159706	-0.000306
					CHANNELS 3 Zrotation Xrotation Yrotation
					JOINT RightArm
					{
						OFFSET	 0.000000	 0.164196	 0.000000
						CHANNELS 3 Zrotation Xrotation Yrotation
						JOINT RightForeArm
						{
							OFFSET	 0.000000	 0.365611	 0.000000
							CHANNELS 3 Zrotation Xrotation Yrotation
							JOINT RightHand
							{
								OFFSET	 0.000000	 0.360648	 0.000000
								CHANNELS 3 Zrotation Xrotation Yrotation
								JOINT RightHandIndex1
								{
									OFFSET	 0.000000	 0.069977	 0.000000
									CHANNELS 3 Zrotation Xrotation Yrotation
									JOINT RightHandIndex2
									{
										OFFSET	 0.000000	 0.052305	 0.000000
										CHANNELS 3 Zrotation Xrotation Yrotation
										JOINT RightHandIndex3
										{
											OFFSET	 0.009002	 0.042196	 0.000782
											CHANNELS 3 Zrotation Xrotation Yrotation
											End Site
											{
												OFFSET	 0.009002	 0.042196	 0.000782
											}
										}
									}
								}
							}
						}
					}
				}
			}
		}
	}
}
MOTION
Frames:    7
Frame Time: 0.03333334
-0.000893	 1.269594	-0.008542	 0.006117	 3.158495	 178.797300	-178.274900	 3.233922	-15.159930	 3.068968	-15.172750	 2.874148	-5.173944	 69.502960	 6.712933	 1.331492	 28.938720	-2.729976	 177.926900	 4.259171	 18.665620	-5.086361	-16.303500	-6.451692	 2.504121	 70.396820	-1.746394	-1.305359	 28.580640	 2.604930	-1.087077	 3.344200	-0.861006	-1.630753	 3.390889	-1.246068	-1.671828	-2.047049	-0.652394	-113.447000	 5.126966	 93.000250	 35.009960	 48.674880	 14.636020	 4.820047	-0.248416	-0.041117	-8.545005	 0.934100	-17.268700	-6.580301	 5.266122	 0.000000	 0.000000	 0.000000	 0.000000	 0.000000	 0.000000	 0.000000	 3.829378	-0.642839	-0.249955	 3.206802	 1.181087	 1.446630	 114.205800	-4.429317	-88.481810	-71.855930	-5.548118	 42.341630	-88.258320	-2.251462	-2.158303	-2.762418	-15.068390	-29.259740	-0.359781	 10.582450	 0.744568	 11.977790	 9.317314	-2.096066	-8.359142	 3.150338	 0.104224
-0.000845	 1.269619	-0.008426	 0.062438	 3.048910	 178.773700	-178.006000	 3.383173	-16.688070	 3.090213	-15.272780	 2.872642	-5.128035	 69.484660	 6.659674	 1.331492	 28.938720	-2.729976	 177.762800	 4.356214	 20.201340	-5.076097	-16.272390	-6.460429	 2.500208	 70.353580	-1.753271	-1.305364	 28.580670	 2.603713	-1.039211	 3.167308	-0.522437	-1.622902	 3.457308	-1.234665	-1.675765	-2.086109	-0.650337	-113.447100	 5.124397	 92.999690	 34.562560	 48.550820	 15.020680	 4.901677	-0.246812	 0.208785	-8.194538	 1.042591	-17.322390	-6.580301	 5.266122	 0.000000	 0.000000	 0.000000	 0.000000	 0.000000	 0.000000	 0.000000	 3.833575	-0.652467	-0.251262	 3.222572	 1.186530	 1.437550	 114.205100	-4.424203	-88.485520	-70.764520	-5.101448	 42.204430	-88.856030	-2.247697	-2.431427	-3.821642	-14.492030	-29.064250	-0.359781	 10.582420	 0.744568	 11.977790	 9.317289	-2.096061	-8.359142	 3.150325	 0.104225
-0.000740	 1.269653	-0.008367	 0.126407	 2.943002	 178.734400	-177.717000	 3.514838	-18.274750	 3.111346	-15.372180	 2.863862	-5.143554	 69.465510	 6.671355	 1.331492	 28.938720	-2.729976	 177.609000	 4.435032	 21.742160	-5.061577	-16.228430	-6.479919	 2.436463	 70.313090	-1.691574	-1.305373	 28.580720	 2.601243	-1.025763	 3.038527	 0.167201	-1.579603	 3.412215	-1.216908	-1.698120	-2.081802	-0.645462	-113.447200	 5.119162	 92.998550	 34.173730	 48.361030	 15.372500	 5.098266	-0.245357	 0.716624	-7.864862	 1.260617	-17.385560	-6.580301	 5.266122	 0.000000	 0.000000	 0.000000	 0.000000	 0.000000	 0.000000	 0.000000	 3.842098	-0.672022	-0.253916	 3.254608	 1.197551	 1.419097	 114.203600	-4.413825	-88.493030	-69.329360	-4.970532	 41.818740	-89.189460	-2.239029	-2.951413	-5.799595	-13.414920	-28.669450	-0.359779	 10.582370	 0.744568	 11.977790	 9.317238	-2.096051	-8.359141	 3.150298	 0.104228
-0.000588	 1.269686	-0.008375	 0.190892	 2.853200	 178.686300	-177.444600	 3.616616	-19.707620	 3.130993	-15.464530	 2.850152	-5.180654	 69.451700	 6.702305	 1.331492	 28.938720	-2.729976	 177.484000	 4.487776	 23.111640	-5.045196	-16.178790	-6.506574	 2.355524	 70.281120	-1.607487	-1.305386	 28.580800	 2.597982	-1.026112	 2.918894	 1.077803	-1.539485	 3.362544	-1.193331	-1.719589	-2.080157	-0.639078	-113.447300	 5.112240	 92.997030	 33.905440	 48.115900	 15.637370	 5.372684	-0.244137	 1.386691	-7.603792	 1.573678	-17.446960	-6.580301	 5.266122	 0.000000	 0.000000	 0.000000	 0.000000	 0.000000	 0.000000	 0.000000	 3.853346	-0.697833	-0.257413	 3.296907	 1.212064	 1.394724	 114.201600	-4.400114	-88.502930	-67.734310	-5.138500	 41.294300	-89.118660	-2.227288	-3.617453	-8.545001	-12.085990	-28.120010	-0.359777	 10.582300	 0.744568	 11.977790	 9.317169	-2.096036	-8.359140	 3.150262	 0.104231
-0.000339	 1.269725	-0.008467	 0.272374	 2.759030	 178.617500	-177.123800	 3.711302	-21.314030	 3.154361	-15.574310	 2.828698	-5.248125	 69.442050	 6.757492	 1.331492	 28.938720	-2.729976	 177.361700	 4.525373	 24.623050	-5.022975	-16.111420	-6.546356	 2.241724	 70.251520	-1.484436	-1.305405	 28.580900	 2.593199	-1.036089	 2.781499	 2.414333	-1.495274	 3.291787	-1.156126	-1.744231	-2.078874	-0.629723	-113.447500	 5.102108	 92.994800	 33.727380	 47.732350	 15.850990	 5.785630	-0.242925	 2.369066	-7.364456	 2.087935	-17.513020	-6.580301	 5.266122	 0.000000	 0.000000	 0.000000	 0.000000	 0.000000	 0.000000	 0.000000	 3.869843	-0.735696	-0.262535	 3.358979	 1.233329	 1.358932	 114.198700	-4.380011	-88.517470	-65.603170	-5.661165	 40.539170	-88.406470	-2.209534	-4.569870	-12.988490	-10.315580	-27.268420	-0.359773	 10.582200	 0.744568	 11.977790	 9.317068	-2.096016	-8.359138	 3.150208	 0.104236
-0.000034	 1.269759	-0.008637	 0.354655	 2.681063	 178.543600	-176.819500	 3.777799	-22.760010	 3.177053	-15.680690	 2.804353	-5.336039	 69.439420	 6.828210	 1.331492	 28.938720	-2.729976	 177.269500	 4.537220	 25.962940	-4.999027	-16.038770	-6.590940	 2.117176	 70.231190	-1.345768	-1.305425	 28.581020	 2.587903	-1.050764	 2.656594	 3.891856	-1.457349	 3.209757	-1.112928	-1.766397	-2.075555	-0.619331	-113.447600	 5.090875	 92.992350	 33.699680	 47.268050	 15.949240	 6.248642	-0.241781	 3.455789	-7.206580	 2.723511	-17.563760	-6.580301	 5.266122	 0.000000	 0.000000	 0.000000	 0.000000	 0.000000	 0.000000	 0.000000	 3.888109	-0.777631	-0.268194	 3.427759	 1.256841	 1.319239	 114.195400	-4.357732	-88.533600	-63.431710	-6.466550	 39.703040	-86.950260	-2.188250	-5.596986	-18.489010	-8.629375	-26.308280	-0.359770	 10.582080	 0.744568	 11.977790	 9.316958	-2.095994	-8.359137	 3.150150	 0.104242
 0.000332	 1.269793	-0.008873	 0.442021	 2.607321	 178.463300	-176.501900	 3.827891	-24.228370	 3.200353	-15.789870	 2.777414	-5.438747	 69.438100	 6.909185	 1.331492	 28.938720	-2.729976	 177.186000	 4.532467	 27.314980	-4.972569	-15.958380	-6.640173	 1.982269	 70.215580	-1.193214	-1.305448	 28.581150	 2.582098	-1.064185	 2.532854	 5.504970	-1.424692	 3.111102	-1.063395	-1.786576	-2.067622	-0.607923	-113.447800	 5.078585	 92.989660	 33.762680	 46.713850	 15.982390	 6.758315	-0.240805	 4.644462	-7.089481	 3.482024	-17.604240	-6.580301	 5.266122	 0.000000	 0.000000	 0.000000	 0.000000	 0.000000	 0.000000	 0.000000	 3.908124	-0.823588	-0.274381	 3.503179	 1.282575	 1.275673	 114.191900	-4.333339	-88.551240	-61.243390	-7.515131	 38.740010	-84.684880	-2.161053	-6.694039	-25.166620	-7.146705	-25.310080	-0.359766	 10.581960	 0.744568	 11.977790	 9.316835	-2.095969	-8.359134	 3.150086	 0.104248
